<svg xmlns="http://www.w3.org/2000/svg" viewBox="0 0 956 869.78"><defs><style>.cls-1{fill:#333;}.cls-2,.cls-5{fill:none;stroke-linecap:round;stroke-miterlimit:10;stroke-width:5px;}.cls-2{stroke:#999;}.cls-3{fill:#f2f2f2;}.cls-4{fill:#fff;}.cls-5{stroke:#333;}</style></defs><title>Asset 17</title><g id="Layer_2" data-name="Layer 2"><g id="Logo_Only_-_Dark" data-name="Logo Only - Dark"><rect id="Bounding_Box" data-name="Bounding Box" class="cls-1" x="566.54" width="384" height="384"/><rect id="Right_Square" data-name="Right Square" class="cls-2" x="659.8" y="74.33" width="235.33" height="235.33" transform="translate(91.95 605.99) rotate(-45)"/><rect id="Left_Square" data-name="Left Square" class="cls-2" x="621.94" y="74.33" width="235.33" height="235.33" transform="translate(80.86 579.22) rotate(-45)"/><path class="cls-3" d="M792.22,193.45H729.13V245h69.11l-1.46,9.13H719.23V130.3h76.16v9.13H729.13v44.89h63.09Z"/></g><g id="Logo_Only" data-name="Logo Only"><rect id="Bounding_Box-2" data-name="Bounding Box" class="cls-4" width="384" height="384"/><rect id="Right_Square-2" data-name="Right Square" class="cls-5" x="93.27" y="74.33" width="235.33" height="235.33" transform="translate(-73.98 205.39) rotate(-45)"/><rect id="Left_Square-2" data-name="Left Square" class="cls-5" x="55.4" y="74.33" width="235.33" height="235.33" transform="translate(-85.07 178.61) rotate(-45)"/><path d="M225.68,193.45H162.59V245H231.7l-1.46,9.13H152.69V130.3h76.16v9.13H162.59v44.89h63.09Z"/></g><g id="Full_Logo" data-name="Full Logo"><path d="M144.63,552.86H74.92v63h75.9l-.73,3.27H71.28V491h77v3.28H74.92v55.33h69.71Z"/><path d="M233.81,619.11,184.48,491h3.83L216,562.15c8,20.74,16.75,43.68,20,53h.37c2.73-8.37,13.1-33.49,20.75-52.42L285.68,491h4L238.36,619.11Z"/><path d="M402.34,552.86H332.63v63h75.9l-.73,3.27H329V491h77v3.28H332.63v55.33h69.71Z"/><path d="M450.75,491h3.64V615.84h72.44l-1.28,3.27h-74.8Z"/><path d="M568.86,491V619.11h-3.64V491Z"/><path d="M626.19,491v80.08c0,34.77,20.56,46.6,42.59,46.6,27.48,0,41.86-16,41.86-46.6V491h3.64v79.36c0,38.4-19.48,50.59-45.87,50.59-22.75,0-45.86-11.46-45.86-48.23V491Z"/><path d="M884.09,556.5c0-26-.37-50.23.36-62.42h-.36c-6.19,15.28-38.22,86.81-55.52,125H824c-18.56-42-47.68-108.47-54.23-125h-.19c.37,7.82.19,45.68.19,67.52v57.51h-3.64V491H772c20.75,47.87,49,111.57,54.42,123.95h.18c4.55-10.56,35.68-79.36,55.33-123.95h5.83V619.11h-3.64Z"/></g><g id="Full_Logo_-_Dark" data-name="Full Logo - Dark"><rect id="Bounding_Box-3" data-name="Bounding Box" class="cls-1" y="684" width="956" height="185.78"/><path class="cls-3" d="M144.63,779.86H74.92v63h75.9l-.73,3.27H71.28V718h77v3.28H74.92v55.33h69.71Z"/><path class="cls-3" d="M233.81,846.11,184.48,718h3.83L216,789.15c8,20.74,16.75,43.68,20,53h.37c2.73-8.37,13.1-33.49,20.75-52.42L285.68,718h4L238.36,846.11Z"/><path class="cls-3" d="M402.34,779.86H332.63v63h75.9l-.73,3.27H329V718h77v3.28H332.63v55.33h69.71Z"/><path class="cls-3" d="M450.75,718h3.64V842.84h72.44l-1.28,3.27h-74.8Z"/><path class="cls-3" d="M568.86,718V846.11h-3.64V718Z"/><path class="cls-3" d="M626.19,718v80.08c0,34.77,20.56,46.6,42.59,46.6,27.48,0,41.86-16,41.86-46.6V718h3.64v79.36c0,38.4-19.48,50.59-45.87,50.59-22.75,0-45.86-11.46-45.86-48.23V718Z"/><path class="cls-3" d="M884.09,783.5c0-26-.37-50.23.36-62.43h-.36c-6.19,15.29-38.22,86.82-55.52,125H824c-18.56-42-47.68-108.47-54.23-125h-.19c.37,7.83.19,45.69.19,67.53v57.51h-3.64V718H772c20.75,47.87,49,111.57,54.42,123.95h.18c4.55-10.56,35.68-79.36,55.33-123.95h5.83V846.11h-3.64Z"/></g></g></svg>