<svg xmlns="http://www.w3.org/2000/svg" viewBox="0 0 816.44 129.95"><title>Asset 15</title><g id="Layer_2" data-name="Layer 2"><g id="Full_Logo" data-name="Full Logo"><path d="M118.63,88.63H48.92v63h75.9l-.73,3.27H45.28V26.75h77V30H48.92V85.36h69.71Z" transform="translate(-45.28 -26.75)"/><path d="M207.81,154.88,158.48,26.75h3.83L190,97.91c8,20.75,16.75,43.69,20,53h.37c2.73-8.37,13.1-33.49,20.75-52.42l28.57-71.71h4L212.36,154.88Z" transform="translate(-45.28 -26.75)"/><path d="M376.34,88.63H306.63v63h75.9l-.73,3.27H303V26.75h77V30H306.63V85.36h69.71Z" transform="translate(-45.28 -26.75)"/><path d="M424.75,26.75h3.64V151.61h72.44l-1.28,3.27h-74.8Z" transform="translate(-45.28 -26.75)"/><path d="M542.86,26.75V154.88h-3.64V26.75Z" transform="translate(-45.28 -26.75)"/><path d="M600.19,26.75v80.08c0,34.77,20.56,46.6,42.59,46.6,27.48,0,41.86-16,41.86-46.6V26.75h3.64V106.1c0,38.41-19.48,50.6-45.87,50.6-22.75,0-45.86-11.46-45.86-48.23V26.75Z" transform="translate(-45.28 -26.75)"/><path d="M858.09,92.27c0-26-.37-50.23.36-62.43h-.36c-6.19,15.29-38.22,86.82-55.52,125H798c-18.56-42-47.68-108.47-54.23-125h-.19c.37,7.83.19,45.69.19,67.53v57.51h-3.64V26.75H746c20.75,47.87,49,111.57,54.42,124h.18c4.55-10.56,35.68-79.36,55.33-123.95h5.83V154.88h-3.64Z" transform="translate(-45.28 -26.75)"/></g></g></svg>